<svg viewBox="0 0 269.94 148.12" xmlns="http://www.w3.org/2000/svg"><path d="m0 0h269.94v148.12h-269.94z" fill="none"/><path d="m17.15 108c5.79 8.07 12.32 12.72 16 12.78 7.53.12 14-5 19.43-4.91a.5.5 0 0 0 .17 0h.14a.43.43 0 0 0 .16 0c5.4-.18 12 4.87 19.5 4.65 3.66-.1 10.12-4.84 15.8-13z" fill="#008ae2"/><path d="m10.1 95.23a63.68 63.68 0 0 0 7 12.74l71.17-.47a63.38 63.38 0 0 0 6.89-12.82z" fill="#ac006e"/><path d="m6.17 81.2a59.79 59.79 0 0 0 3.93 14l85.11-.55c.29-.72.56-1.45.82-2.19a21 21 0 0 1 -12.78-11.76z" fill="#e1000e"/><path d="m5.86 67.15a51.29 51.29 0 0 0 -.3 6.85 53.11 53.11 0 0 0 .61 7.21l77.08-.5a24.53 24.53 0 0 1 -2.06-9.76 24.05 24.05 0 0 1 .34-4.29z" fill="#ff8700"/><path d="m10.49 53.06a33.8 33.8 0 0 0 -4.63 14.09l75.67-.5a21.75 21.75 0 0 1 8.69-14.11z" fill="#f3ea00"/><path d="m52.39 44.55h-.13c-5.15 0-14.65-5.2-21.37-4.46a28.52 28.52 0 0 0 -20.4 13l79.73-.52a22 22 0 0 1 2.49-1.57c-6.09-9.48-15.93-10.88-19-11.18-6.71-.66-16.18 4.61-21.32 4.73z" fill="#00c800"/><path d="m70.38 15.19c-.52-.44-10.07 1.38-15.94 8s-5.44 16.81-4.92 17.19 10.21-1.15 15.94-8 5.44-16.76 4.92-17.19z" fill="#00c800"/><g fill="#231f20"><path d="m210.42 41.6h12.65v46.76h-12.65z"/><path d="m102.3 54.55c-9.56 0-16.47 8.05-16.47 16.91s6.91 16.91 16.47 16.91h7.28v-9.63h-4.21a7 7 0 0 1 -7.43-7.28c0-3.8 3.6-6.87 7.43-6.87h6.73v23.78h12.65v-33.82z"/><path d="m149.79 54.55h-22.44v46.45h12.65v-36.41h6.72c3.84 0 7.44 3.07 7.44 6.87a7 7 0 0 1 -7.44 7.28h-4.21v9.63h7.28c9.57 0 16.47-8.06 16.47-16.91s-6.9-16.91-16.47-16.91z"/><path d="m191.68 54.55h-22.45v46.45h12.66v-36.41h6.72c3.83 0 7.43 3.07 7.43 6.87a7 7 0 0 1 -7.43 7.28h-4.21v9.63h7.28c9.57 0 16.47-8.06 16.47-16.91s-6.9-16.91-16.47-16.91z"/><path d="m257.46 75.93 7.14-11.34v-10h-22.45c-9.56 0-16.46 8.05-16.46 16.91s6.9 16.91 16.46 16.91h21.85v-9.67h-18.77a7 7 0 0 1 -7.44-7.28c0-3.8 3.6-6.87 7.44-6.87h8.46l-7.14 11.34z"/></g></svg>